<?xml version="1.0" encoding="utf-8" ?>
<svg xmlns="http://www.w3.org/2000/svg" xmlns:xlink="http://www.w3.org/1999/xlink" width="1024" height="1024">
	<path fill="white" d="M0 0L1024 0L1024 1024L0 1024L0 0Z"/>
	<path d="M503.374 27.242L504.009 27.2316Q509.909 27.1635 515.81 27.2395Q521.71 27.3155 527.607 27.5355Q533.504 27.7555 539.393 28.1194Q545.283 28.4833 551.162 28.9909Q557.041 29.4984 562.906 30.1494Q568.771 30.8003 574.618 31.5942Q580.465 32.3881 586.291 33.3245Q592.117 34.2609 597.919 35.3392Q603.72 36.4175 609.493 37.6372Q615.267 38.8568 621.009 40.217Q626.751 41.5773 632.458 43.0772Q638.165 44.5772 643.834 46.2161Q649.502 47.8549 655.129 49.6316Q660.756 51.4084 666.338 53.322Q671.92 55.2355 677.454 57.2848Q682.987 59.3341 688.469 61.5178Q693.951 63.7016 699.378 66.0185Q704.805 68.3354 710.174 70.7841Q715.543 73.2328 720.85 75.8118Q726.158 78.3908 731.401 81.0986Q736.643 83.8065 741.819 86.6415Q746.994 89.4765 752.098 92.437Q757.203 95.3974 762.233 98.4817Q767.264 101.566 772.218 104.772Q777.172 107.978 782.046 111.304Q786.92 114.63 791.712 118.074Q796.503 121.518 801.209 125.078Q805.915 128.638 810.533 132.312Q815.15 135.986 819.677 139.772Q824.204 143.557 828.637 147.452Q833.07 151.347 837.406 155.349Q841.742 159.35 845.98 163.457Q850.288 167.632 854.492 171.911Q858.696 176.19 862.793 180.572Q866.89 184.953 870.878 189.435Q874.867 193.916 878.743 198.494Q882.62 203.072 886.382 207.744Q890.145 212.416 893.791 217.179Q897.438 221.943 900.966 226.795Q904.494 231.646 907.901 236.584Q911.308 241.521 914.593 246.54Q917.878 251.56 921.038 256.659Q924.198 261.758 927.232 266.933Q930.265 272.108 933.17 277.357Q936.076 282.605 938.851 287.923Q941.626 293.242 944.269 298.627Q946.912 304.012 949.422 309.461Q951.932 314.909 954.307 320.418Q956.682 325.927 958.92 331.492Q961.158 337.058 963.259 342.677Q965.36 348.296 967.321 353.965Q969.283 359.634 971.104 365.349Q972.926 371.065 974.606 376.824Q976.286 382.582 977.824 388.381Q979.362 394.179 980.756 400.014Q982.151 405.848 983.401 411.715Q984.651 417.582 985.757 423.478Q986.862 429.375 987.822 435.296Q988.782 441.218 989.596 447.161Q990.41 453.104 991.077 459.066Q991.744 465.028 992.264 471.004Q992.784 476.98 993.157 482.967Q993.53 488.954 993.755 494.949Q993.98 500.944 994.058 506.942Q994.126 511.978 994.087 517.014Q994.047 522.05 993.902 527.084Q993.756 532.119 993.503 537.148Q993.251 542.178 992.892 547.202Q992.533 552.225 992.067 557.24Q991.602 562.255 991.031 567.259Q990.459 572.262 989.782 577.253Q989.104 582.243 988.321 587.218Q987.538 592.194 986.65 597.151Q985.762 602.108 984.769 607.046Q983.776 611.983 982.679 616.898Q981.581 621.814 980.38 626.705Q979.178 631.595 977.874 636.46Q976.569 641.324 975.162 646.16Q973.754 650.995 972.245 655.8Q970.735 660.605 969.124 665.376Q967.513 670.148 965.801 674.885Q964.089 679.621 962.278 684.32Q960.466 689.019 958.555 693.679Q956.644 698.339 954.635 702.957Q952.626 707.575 950.519 712.15Q948.412 716.724 946.209 721.253Q944.006 725.782 941.708 730.263Q939.409 734.744 937.016 739.175Q934.623 743.607 932.137 747.987Q929.651 752.367 927.072 756.693Q924.493 761.019 921.824 765.289Q919.154 769.56 916.395 773.773Q913.635 777.986 910.787 782.139Q907.939 786.293 905.003 790.385Q902.068 794.478 899.046 798.507Q896.024 802.536 892.918 806.5Q874.11 830.294 852.816 851.892Q848.725 856.023 844.535 860.053Q840.345 864.083 836.058 868.01Q831.771 871.937 827.39 875.758Q823.009 879.58 818.536 883.293Q814.063 887.007 809.501 890.611Q804.94 894.215 800.292 897.707Q795.644 901.199 790.912 904.577Q786.181 907.955 781.368 911.217Q776.556 914.479 771.666 917.623Q766.776 920.767 761.81 923.791Q756.845 926.815 751.808 929.717Q746.771 932.62 741.664 935.399Q736.558 938.178 731.386 940.832Q726.213 943.486 720.978 946.014Q715.742 948.542 710.447 950.941Q705.152 953.341 699.8 955.611Q694.447 957.881 689.042 960.02Q683.636 962.159 678.18 964.166Q672.724 966.173 667.22 968.047Q661.717 969.921 656.17 971.661Q650.622 973.4 645.035 975.004Q639.447 976.609 633.821 978.076Q628.196 979.544 622.537 980.875Q616.877 982.205 611.187 983.398Q605.497 984.59 599.78 985.644Q594.063 986.698 588.322 987.613Q582.58 988.527 576.819 989.302Q571.057 990.076 565.278 990.711Q559.499 991.345 553.706 991.838Q547.914 992.332 542.111 992.685Q536.308 993.037 530.498 993.249Q524.688 993.46 518.875 993.53C385.36 994.516 268.807 945.63 173.061 853.175Q168.887 849.125 164.814 844.974Q160.741 840.824 156.77 836.574Q152.8 832.325 148.934 827.98Q145.069 823.635 141.311 819.197Q137.553 814.759 133.904 810.23Q130.256 805.702 126.72 801.085Q123.183 796.469 119.76 791.767Q116.338 787.065 113.031 782.281Q109.725 777.497 106.536 772.634Q103.348 767.77 100.279 762.83Q97.2102 757.89 94.2633 752.877Q91.3163 747.863 88.4929 742.779Q85.6694 737.695 82.9711 732.543Q80.2729 727.392 77.7014 722.175Q75.1299 716.959 72.6867 711.682Q70.2436 706.405 67.9302 701.069Q65.6168 695.733 63.4347 690.343Q61.2525 684.952 59.2028 679.51Q57.1531 674.068 55.2371 668.577Q53.3211 663.086 51.54 657.55Q49.7588 652.014 48.1136 646.436Q46.4684 640.858 44.9601 635.241Q43.4518 629.625 42.0813 623.973Q40.7108 618.322 39.4789 612.638Q38.247 606.954 37.1545 601.243Q36.062 595.531 35.1095 589.794Q34.157 584.057 33.3451 578.298Q32.5331 572.539 31.8623 566.763Q31.1915 560.986 30.6621 555.195Q30.1327 549.403 29.7452 543.601Q29.3576 537.798 29.112 531.988Q28.8665 526.178 28.7631 520.363Q28.6732 514.432 28.7284 508.501Q28.7837 502.57 28.9841 496.642Q29.1845 490.714 29.5299 484.793Q29.8754 478.872 30.3656 472.961Q30.8559 467.05 31.4907 461.152Q32.1254 455.255 32.9044 449.375Q33.6833 443.495 34.6059 437.636Q35.5285 431.777 36.5942 425.942Q37.66 420.107 38.8682 414.3Q40.0764 408.493 41.4264 402.718Q42.7763 396.942 44.2673 391.201Q45.7582 385.46 47.3892 379.758Q49.0202 374.055 50.7903 368.394Q52.5604 362.733 54.4685 357.117Q56.3766 351.501 58.4216 345.933Q60.4666 340.365 62.6472 334.85Q64.8278 329.334 67.1428 323.873Q69.4578 318.412 71.9058 313.009Q74.3537 307.607 76.9332 302.265Q79.5126 296.924 82.222 291.648Q84.9314 286.372 87.7691 281.163Q90.6069 275.955 93.5712 270.817Q96.5356 265.68 99.6248 260.617Q102.714 255.553 105.926 250.567Q109.138 245.581 112.472 240.675Q115.805 235.769 119.257 230.945Q122.71 226.122 126.279 221.385Q129.848 216.648 133.533 212Q137.217 207.351 141.014 202.795Q144.811 198.238 148.718 193.775Q152.625 189.313 156.641 184.947Q160.656 180.582 164.777 176.316C255.067 82.9816 373.075 29.5311 503.374 27.242Z"/>
	<path fill="white" d="M493.855 46.2842Q497.973 46.0557 502.096 45.9861Q506.111 45.9325 510.127 45.9478Q514.142 45.9632 518.157 46.0476Q522.171 46.132 526.184 46.2854Q530.197 46.4387 534.206 46.661Q538.215 46.8833 542.22 47.1745Q546.225 47.4656 550.225 47.8256Q554.224 48.1855 558.217 48.6142Q562.209 49.0428 566.194 49.54Q570.178 50.0371 574.154 50.6027Q578.129 51.1683 582.094 51.8021Q586.06 52.4359 590.013 53.1378Q593.967 53.8396 597.908 54.6093Q601.849 55.379 605.776 56.2164Q609.704 57.0537 613.616 57.9584Q617.528 58.863 621.424 59.8348Q625.321 60.8066 629.2 61.8452Q633.078 62.8838 636.939 63.9889Q640.799 65.094 644.64 66.2653Q648.481 67.4365 652.301 68.6736Q656.122 69.9108 659.92 71.2133Q663.718 72.5159 667.494 73.8836Q671.269 75.2512 675.021 76.6836Q678.772 78.1159 682.498 79.6125Q686.224 81.1091 689.924 82.6695Q693.624 84.2299 697.297 85.8537Q700.969 87.4775 704.613 89.1641Q708.258 90.8508 711.872 92.5998Q715.487 94.3488 719.071 96.1597Q722.655 97.9706 726.207 99.8427Q729.76 101.715 733.279 103.648Q736.799 105.581 740.285 107.574Q743.771 109.567 747.222 111.62Q759.408 119.033 771.15 127.129Q782.892 135.226 794.153 143.98Q805.414 152.734 816.156 162.117Q826.898 171.5 837.087 181.481C895.66 238.068 941.076 318.603 961.364 397.339Q964.637 410.407 967.157 423.641Q969.678 436.874 971.438 450.23Q973.199 463.587 974.193 477.021Q975.188 490.456 975.413 503.926Q975.523 509.537 975.495 515.149Q975.467 520.762 975.301 526.372Q975.135 531.981 974.832 537.586Q974.529 543.19 974.088 548.785Q973.648 554.38 973.07 559.962Q972.492 565.545 971.777 571.111Q971.063 576.678 970.212 582.225Q969.361 587.773 968.374 593.298Q967.387 598.822 966.265 604.321Q965.142 609.82 963.886 615.29Q962.629 620.76 961.238 626.197Q959.848 631.635 958.324 637.036Q956.8 642.438 955.145 647.8Q953.489 653.163 951.702 658.483Q949.915 663.803 947.999 669.078Q946.082 674.353 944.036 679.579Q941.991 684.805 939.817 689.98Q937.644 695.154 935.344 700.274Q933.045 705.393 930.62 710.455Q928.196 715.517 925.648 720.517Q923.1 725.518 920.43 730.454Q917.76 735.391 914.97 740.26Q912.179 745.13 909.27 749.93Q906.362 754.729 903.336 759.456Q900.31 764.183 897.169 768.834Q894.028 773.485 890.774 778.058Q887.52 782.63 884.155 787.122Q880.789 791.613 877.315 796.021Q873.84 800.428 870.259 804.749Q866.677 809.07 862.991 813.302Q859.304 817.533 855.515 821.673Q851.726 825.813 847.836 829.859C784.07 895.534 707.844 940.567 618.907 962.288Q607.743 965.084 596.441 967.255Q585.138 969.426 573.733 970.967Q562.328 972.507 550.854 973.411Q539.381 974.316 527.875 974.582C487.754 975.154 448.017 972.08 408.785 963.336C329.902 945.756 255.509 904.561 196.345 849.863Q192.133 845.985 188.018 842.003Q183.904 838.022 179.889 833.94Q175.874 829.858 171.962 825.677Q168.05 821.496 164.243 817.22Q160.435 812.944 156.735 808.575Q153.035 804.205 149.445 799.746Q145.854 795.286 142.375 790.739Q138.896 786.191 135.531 781.559Q132.166 776.927 128.917 772.212Q125.667 767.498 122.536 762.705Q119.405 757.911 116.393 753.042Q113.382 748.172 110.492 743.229Q107.602 738.287 104.835 733.274Q102.069 728.261 99.4278 723.181Q96.7866 718.101 94.2721 712.957Q91.7576 707.813 89.3715 702.609Q86.9853 697.404 84.7289 692.142Q82.4725 686.88 80.3474 681.563Q78.2222 676.247 76.2294 670.879Q74.2367 665.512 72.3777 660.096Q70.5187 654.681 68.7945 649.221Q67.0703 643.761 65.4821 638.26Q63.8938 632.76 62.4425 627.221Q60.9911 621.683 59.6775 616.11Q58.3639 610.537 57.1889 604.933Q56.0139 599.33 54.9782 593.698Q53.9425 588.067 53.0467 582.412Q52.151 576.757 51.3957 571.082Q50.6405 565.406 50.0262 559.714Q49.4119 554.021 48.9389 548.315Q48.466 542.609 48.1346 536.893Q47.8033 531.177 47.6138 525.455C42.897 403.189 91.7039 281.948 174.546 192.812Q178.381 188.686 182.316 184.656Q186.25 180.626 190.283 176.693Q194.315 172.76 198.442 168.927Q202.569 165.094 206.789 161.363Q211.009 157.632 215.319 154.006Q219.629 150.379 224.026 146.859Q228.424 143.339 232.906 139.928Q237.388 136.517 241.952 133.216Q246.517 129.916 251.161 126.728Q255.804 123.541 260.525 120.467Q265.245 117.394 270.039 114.438Q274.834 111.481 279.699 108.642Q284.564 105.804 289.497 103.086Q294.43 100.367 299.428 97.7701Q304.427 95.1732 309.487 92.6994Q314.547 90.2255 319.667 87.8763Q324.786 85.5271 329.961 83.3039Q335.137 81.0807 340.365 78.9848Q345.593 76.889 350.871 74.9217Q356.149 72.9544 361.473 71.1169Q366.798 69.2794 372.166 67.5728Q377.533 65.8662 382.941 64.2915Q388.349 62.7168 393.794 61.2749Q399.239 59.833 404.718 58.5249Q410.197 57.2167 415.706 56.043Q421.215 54.8694 426.751 53.8309Q432.287 52.7924 437.847 51.8897Q443.406 50.9871 448.987 50.2208Q454.567 49.4545 460.164 48.825Q465.762 48.1955 471.373 47.7032Q476.984 47.2109 482.605 46.8561Q488.227 46.5013 493.855 46.2842Z"/>
	<path d="M750.775 385.011C751.23 384.963 751.684 384.909 752.141 384.886C754.58 384.762 757.49 385.162 759.299 386.966C760.262 387.924 760.968 389.704 760.759 391.098C760.087 395.566 736.606 431.558 733.034 434.442C732.054 434.711 731.013 434.961 729.991 434.975C728.247 434.997 726.116 434.193 724.895 432.94C723.689 431.702 723.324 430.134 723.465 428.459C723.752 425.041 747.177 388.173 750.775 385.011Z"/>
	<path d="M346.602 200.114C347.784 200.055 349.159 200.02 350.298 200.356C352.048 200.873 353.616 202.257 354.445 203.868C355.199 205.333 355.323 206.979 354.774 208.538C354.131 210.359 352.46 212.135 350.719 212.956C348.986 213.775 346.82 213.924 344.953 214.367C340.239 215.488 335.491 217.092 331.273 219.499Q328.772 220.911 326.509 222.679Q324.247 224.448 322.272 226.533C319.465 229.523 317.489 233.952 313.658 235.719C305.843 239.324 302.095 227.9 297.635 223.78C293.901 220.33 289.319 218.197 284.654 216.321C280.755 215.461 276.671 214.914 273.525 212.248C272.186 211.113 270.94 209.364 270.987 207.537C271.022 206.173 271.763 205.009 272.726 204.098C274.673 202.261 277.314 201.605 279.933 201.703C290.973 202.117 303.418 210.304 310.854 217.995C320.538 208.574 333.385 202.603 346.602 200.114Z"/>
	<path d="M625.736 144.216C626.445 144.701 626.202 144.478 626.863 145.22C631.275 150.173 634.657 157.686 637.961 163.453L659.705 201.787L687.921 250.619C694.362 261.531 701.096 272.323 707.185 283.437C708.143 285.186 709.347 287.119 709.143 289.19C708.951 291.139 707.675 292.858 706.104 293.956C704.723 294.921 702.749 295.792 701.061 295.253C699.289 294.687 697.743 293.036 696.699 291.564C693.595 287.192 691.138 281.991 688.429 277.334C682.599 267.316 676.757 257.412 671.182 247.243C663.453 233.147 654.941 219.538 646.95 205.595C640.008 193.481 633.649 180.932 626.011 169.237Q618.562 180.195 612.043 191.732C606.017 201.69 600.554 211.99 594.638 222.017C586.396 235.986 577.712 249.676 569.616 263.739C560.389 279.765 551.563 296.315 541.388 311.747C540.281 313.426 538.662 316.055 536.785 316.911C535.285 317.596 533.891 317.49 532.392 316.927C530.311 316.145 528.756 314.968 528.049 312.779C527.482 311.024 528.343 309.411 529.101 307.859C531.892 302.144 535.514 296.672 538.764 291.196Q547.912 275.875 556.885 260.451Q590.455 201.827 625.736 144.216Z"/>
	<path d="M729.946 303.246L756.373 303.24C761.192 303.242 766.327 302.893 771.101 303.556C772.775 303.788 774.437 304.152 775.626 305.437C776.559 306.446 777.077 307.593 777.273 308.942C778.162 315.066 777.471 322.178 777.453 328.434L777.505 365.107C777.494 368.592 777.376 371.679 774.619 374.195C773.689 375.044 772.646 375.395 771.416 375.56C765.216 376.393 758.459 375.825 752.193 375.758Q736.723 375.614 721.252 375.634C713.918 375.675 678.235 377.321 674.474 373.736C672.803 372.144 672.515 366.655 672.448 364.352C672.132 353.392 672.508 342.366 672.447 331.397C672.408 324.323 671.452 316.107 672.6 309.188C672.829 307.81 673.535 306.58 674.524 305.61C675.862 304.298 677.428 303.973 679.232 303.741C684.594 303.051 690.402 303.566 695.815 303.532L729.946 303.246Z"/>
	<path fill="white" d="M685.319 316.459L764.325 316.486C764.711 331.823 764.268 347.235 764.078 362.574C737.92 363.394 711.502 363.096 685.337 362.794Q685.533 339.626 685.319 316.459Z"/>
	<path d="M700.032 332.023C701.064 332.079 702.046 332.142 703.034 332.467C705.096 333.146 706.912 334.829 707.789 336.808Q707.955 337.188 708.081 337.582Q708.207 337.977 708.291 338.383Q708.375 338.788 708.417 339.201Q708.458 339.613 708.456 340.027Q708.455 340.441 708.41 340.853Q708.365 341.265 708.278 341.67Q708.191 342.075 708.062 342.469Q707.933 342.863 707.764 343.241C706.562 345.866 704.641 347.134 702.019 348.105C700.836 348.071 699.714 347.976 698.582 347.598C696.705 346.972 695.041 345.479 694.179 343.703C693.255 341.797 693.219 339.643 693.917 337.659C694.974 334.651 697.26 333.259 700.032 332.023Z"/>
	<path d="M745.481 332.509C746.571 332.455 747.697 332.37 748.781 332.55C750.944 332.911 753.191 334.423 754.412 336.235C755.647 338.065 755.892 340.313 755.315 342.421C754.537 345.263 752.393 346.512 749.982 347.898C748.848 348.069 747.633 348.29 746.488 348.113C744.449 347.799 742.39 346.368 741.29 344.641C740.063 342.715 739.779 340.441 740.371 338.244C741.145 335.366 743.006 333.93 745.481 332.509Z"/>
	<path d="M721.566 332.536C722.842 332.407 724.094 332.329 725.372 332.498C727.593 332.791 729.761 334.14 731.089 335.93C732.262 337.511 732.756 339.496 732.321 341.43C731.664 344.348 729.652 345.856 727.25 347.368C725.866 347.692 724.428 347.981 723.001 347.781C721.075 347.51 719.161 346.335 718.034 344.757C716.817 343.052 716.49 340.917 716.846 338.879C717.377 335.838 719.191 334.289 721.566 332.536Z"/>
	<path d="M483.24 92.1843C496.494 91.2032 509.565 94.3186 520.505 102.007C532.576 110.491 539.968 122.717 542.42 137.238C544.807 151.371 541.861 165.813 533.513 177.539C524.066 190.807 509.604 197.884 493.849 200.479C479.406 200.901 465.946 197.816 454.279 188.926C442.264 179.77 434.952 166.766 433.083 151.812Q432.93 150.493 432.842 149.168Q432.754 147.843 432.731 146.515Q432.708 145.187 432.749 143.86Q432.791 142.533 432.897 141.209Q433.003 139.885 433.173 138.568Q433.344 137.251 433.578 135.944Q433.813 134.637 434.111 133.343Q434.409 132.049 434.769 130.771Q435.13 129.493 435.552 128.234Q435.975 126.975 436.458 125.738Q436.942 124.501 437.485 123.289Q438.028 122.078 438.629 120.894Q439.231 119.71 439.889 118.557Q440.548 117.403 441.262 116.284Q441.976 115.164 442.744 114.08Q443.511 112.997 444.331 111.952C453.884 99.777 468.242 93.9717 483.24 92.1843Z"/>
	<path fill="white" d="M482.775 105.133Q483.703 105.043 484.633 104.991Q485.564 104.938 486.496 104.925Q487.428 104.911 488.36 104.936Q489.292 104.961 490.221 105.025Q491.151 105.088 492.078 105.19Q493.005 105.292 493.926 105.432Q494.848 105.573 495.762 105.751Q496.677 105.929 497.584 106.144Q498.491 106.36 499.388 106.613Q500.285 106.866 501.171 107.156Q502.057 107.446 502.93 107.772Q503.803 108.099 504.662 108.461Q505.521 108.823 506.364 109.22Q507.207 109.618 508.033 110.049Q508.859 110.481 509.667 110.947Q510.474 111.412 511.262 111.911C520.065 117.443 527.052 127.007 529.323 137.184C531.744 148.033 529.38 159.003 523.368 168.269C516.576 178.739 507.053 184.385 495.007 186.887C483.754 188.751 472.896 186.084 463.542 179.551Q462.705 178.969 461.897 178.346Q461.09 177.723 460.315 177.061Q459.539 176.399 458.797 175.7Q458.055 175 457.349 174.265Q456.642 173.529 455.973 172.76Q455.304 171.991 454.673 171.189Q454.043 170.388 453.453 169.556Q452.863 168.725 452.315 167.865Q451.766 167.005 451.261 166.119Q450.756 165.233 450.296 164.324Q449.835 163.414 449.42 162.483Q449.005 161.551 448.636 160.6Q448.268 159.65 447.947 158.682Q447.625 157.714 447.353 156.732Q447.08 155.749 446.856 154.754Q446.632 153.76 446.457 152.755Q446.28 151.771 446.152 150.779Q446.025 149.787 445.948 148.79Q445.872 147.793 445.845 146.794Q445.819 145.794 445.844 144.794Q445.868 143.795 445.943 142.798Q446.018 141.8 446.144 140.808Q446.269 139.816 446.444 138.832Q446.62 137.847 446.845 136.873Q447.07 135.899 447.344 134.937Q447.619 133.976 447.941 133.029Q448.264 132.083 448.634 131.154Q449.004 130.225 449.42 129.316Q449.837 128.407 450.299 127.52Q450.761 126.633 451.268 125.771Q451.774 124.909 452.323 124.073Q452.873 123.238 453.464 122.431C460.474 112.688 471.109 107.118 482.775 105.133Z"/>
	<path d="M199.062 203.529C201.6 203.966 202.951 204.257 204.553 206.428C208.182 211.346 211.138 217.004 214.291 222.25Q222.399 235.777 230.708 249.181Q266.687 306.154 299.531 364.99Q311.617 386.403 324.069 407.607C328.376 414.906 333.368 422.096 337.142 429.667C338.097 431.582 338.785 433.094 338.333 435.268C338.017 436.786 336.772 438.291 335.495 439.114C334.21 439.942 332.448 440.43 330.939 439.98C328.317 439.197 326.519 436.445 325.064 434.271C318.501 424.461 312.767 414.05 306.781 403.893Q287.876 372.243 269.932 340.039C256.059 315.635 241.23 291.942 226.596 268.007L209.97 240.977C206.558 235.327 203.41 229.527 199.825 223.983C195.275 230.423 191.581 237.66 187.74 244.538L170.522 275.04C154.059 303.793 137.091 332.083 122.155 361.689C112.749 380.336 104.238 398.424 98.2084 418.457C139.485 419.038 180.844 418.723 222.131 418.745C239.231 418.754 256.843 417.692 273.89 418.623C276.148 418.746 278.705 418.727 280.262 420.639C281.327 421.947 281.721 423.722 281.525 425.379C281.325 427.077 280.46 428.792 278.971 429.706C277.506 430.605 275.452 430.735 273.768 430.81C263.878 431.256 253.729 430.582 243.808 430.595Q207.199 430.845 170.588 430.712L128.767 430.749C117.424 430.796 106.021 431.354 94.7674 429.674C93.1974 435.265 92.4806 441.224 91.5089 446.958C89.4447 459.138 87.526 471.263 86.4783 483.581Q85.9547 489.559 85.6093 495.55Q85.2639 501.54 85.0971 507.539Q84.9302 513.537 84.9421 519.538Q84.9539 525.539 85.1444 531.536Q85.3349 537.534 85.7039 543.523Q86.0729 549.513 86.6201 555.488Q87.1673 561.464 87.8921 567.421Q88.617 573.378 89.5189 579.31Q90.4208 585.243 91.4989 591.146Q92.5771 597.049 93.8305 602.917Q95.084 608.786 96.5116 614.614Q97.9392 620.442 99.5398 626.226Q101.14 632.009 102.912 637.742Q104.684 643.475 106.626 649.153Q108.568 654.831 110.678 660.448Q112.789 666.066 115.065 671.618C120.656 685.078 127.264 697.955 133.993 710.867C162.76 711.638 191.725 710.769 220.516 710.809Q320.055 711.467 419.593 710.642L888.722 710.949C897.503 693.134 906.077 675.355 912.937 656.691Q914.181 653.322 915.364 649.932Q916.547 646.541 917.669 643.13Q918.791 639.718 919.851 636.287Q920.911 632.856 921.909 629.407Q922.907 625.957 923.843 622.49Q924.778 619.023 925.651 615.539Q926.524 612.056 927.334 608.558Q928.144 605.059 928.891 601.546Q929.637 598.034 930.32 594.508Q931.003 590.983 931.623 587.445Q932.242 583.908 932.798 580.36Q933.353 576.812 933.844 573.255Q934.336 569.698 934.763 566.132Q935.19 562.567 935.553 558.994Q935.915 555.421 936.214 551.842Q936.512 548.264 936.745 544.68Q936.979 541.097 937.148 537.51Q937.317 533.923 937.421 530.333Q937.525 526.743 937.564 523.153Q937.604 519.562 937.578 515.971Q937.552 512.38 937.462 508.79Q937.372 505.2 937.217 501.612Q937.062 498.024 936.842 494.44Q936.622 490.856 936.338 487.276Q936.054 483.696 935.705 480.122Q935.356 476.548 934.942 472.981Q934.529 469.413 934.051 465.854Q933.574 462.295 933.032 458.745Q932.49 455.195 931.884 451.655Q931.279 448.116 930.609 444.588Q929.94 441.06 929.207 437.544Q928.473 434.029 927.677 430.527C877.466 430.012 827.203 431.102 776.981 430.817Q780.638 424.721 784.525 418.769L869.244 418.51C887.664 418.512 906.153 418.814 924.558 418.071C922.402 409.361 919.9 400.969 916.798 392.548C883.391 392.163 849.963 392.621 816.551 392.401L801.622 392.403C803.855 388.193 806.529 384.151 809.007 380.078C820.691 379.696 832.478 380.013 844.175 379.999L912.014 379.909C908.816 370.641 904.779 360.637 899.616 352.294C890.473 351.571 881.181 351.813 872.012 351.833Q850.861 351.973 829.71 351.797C831.807 347.572 834.043 343.489 836.499 339.461C855.536 339.481 874.607 339.734 893.64 339.338C877.749 311.744 858.509 286.128 842.272 258.7C832.664 273.39 823.665 288.586 814.411 303.511C810.749 309.418 807.385 315.837 803.316 321.453C802.374 322.754 801.319 324.212 799.809 324.886C798.244 325.585 796.36 325.448 794.792 324.833C793.053 324.15 791.479 322.801 790.898 320.98C790.303 319.118 791.001 316.993 791.784 315.295C794.77 308.826 801.25 300.313 805.157 293.907Q823.259 263.764 842.18 234.127C854.795 254.502 867.786 274.699 880.792 294.826C886.872 304.236 893.591 313.241 899.467 322.771C909.912 339.71 918.343 358.214 925.442 376.784Q927.211 381.468 928.863 386.194Q930.516 390.92 932.05 395.685Q933.585 400.451 935.002 405.253Q936.418 410.055 937.715 414.89Q939.013 419.726 940.19 424.592Q941.367 429.458 942.423 434.352Q943.479 439.246 944.414 444.164Q945.349 449.083 946.162 454.023Q946.974 458.963 947.665 463.922Q948.355 468.881 948.922 473.855Q949.489 478.829 949.933 483.816Q950.377 488.803 950.698 493.799Q951.018 498.795 951.215 503.798Q951.411 508.801 951.484 513.807Q951.557 518.813 951.505 523.819Q951.454 528.825 951.279 533.829Q951.104 538.832 950.805 543.83Q950.506 548.828 950.084 553.816Q949.661 558.805 949.115 563.782Q948.569 568.758 947.9 573.72Q947.231 578.682 946.44 583.625Q945.648 588.569 944.735 593.491Q943.821 598.414 942.786 603.312Q941.75 608.21 940.594 613.082Q939.438 617.953 938.162 622.794Q936.885 627.635 935.49 632.443Q934.094 637.251 932.579 642.023Q931.065 646.795 929.433 651.528Q927.801 656.261 926.052 660.952Q924.303 665.644 922.439 670.29Q920.574 674.937 918.596 679.535Q916.617 684.134 914.525 688.683Q912.225 693.729 909.801 698.717Q907.377 703.704 904.83 708.63Q902.284 713.557 899.616 718.418Q896.949 723.28 894.162 728.075Q891.376 732.869 888.471 737.594Q885.567 742.318 882.547 746.969Q879.528 751.62 876.394 756.195Q873.26 760.77 870.014 765.266Q866.768 769.763 863.412 774.178Q860.056 778.592 856.592 782.923Q853.129 787.254 849.559 791.497Q845.989 795.741 842.315 799.895Q838.642 804.05 834.867 808.112Q831.092 812.174 827.218 816.142Q823.344 820.11 819.373 823.981Q815.402 827.852 811.337 831.624Q807.272 835.395 803.114 839.065Q798.957 842.736 794.711 846.302Q790.464 849.869 786.131 853.329Q781.797 856.79 777.38 860.142Q772.963 863.494 768.464 866.737Q763.965 869.979 759.387 873.109Q754.81 876.24 750.156 879.256Q745.503 882.272 740.776 885.172Q736.05 888.073 731.253 890.856Q726.457 893.639 721.593 896.302Q716.729 898.966 711.8 901.508Q706.872 904.051 701.883 906.471Q696.893 908.891 691.845 911.187Q686.798 913.484 681.695 915.655Q676.592 917.825 671.437 919.87Q666.282 921.914 661.078 923.83Q645.34 929.68 629.168 934.189Q612.995 938.699 596.501 941.836Q592.312 942.675 588.107 943.432Q583.903 944.188 579.684 944.862Q575.465 945.536 571.234 946.126Q567.003 946.717 562.761 947.224Q558.519 947.731 554.268 948.155Q550.017 948.578 545.758 948.918Q541.5 949.258 537.235 949.514Q532.971 949.771 528.702 949.943Q524.433 950.115 520.162 950.203Q515.891 950.291 511.619 950.295Q507.346 950.299 503.075 950.219Q498.804 950.139 494.535 949.975Q490.266 949.811 486.001 949.563Q481.736 949.315 477.476 948.984Q473.217 948.652 468.965 948.236Q464.713 947.821 460.47 947.322Q456.227 946.822 451.995 946.24Q447.763 945.657 443.543 944.992Q439.323 944.326 435.117 943.578Q430.911 942.829 426.72 941.998Q422.53 941.167 418.356 940.253Q414.183 939.34 410.028 938.345Q405.874 937.349 401.739 936.272Q397.605 935.195 393.493 934.037Q389.381 932.879 385.292 931.641Q381.203 930.402 377.14 929.083Q373.077 927.764 369.04 926.366Q365.003 924.967 360.995 923.489Q356.986 922.012 353.008 920.455Q349.029 918.899 345.082 917.265Q341.134 915.63 337.22 913.919Q333.306 912.207 329.426 910.419Q325.375 908.571 321.363 906.642Q317.35 904.713 313.377 902.704Q309.403 900.696 305.471 898.608Q301.539 896.52 297.649 894.354Q293.759 892.188 289.913 889.944Q286.068 887.701 282.267 885.381Q278.467 883.061 274.714 880.666Q270.962 878.27 267.257 875.8Q263.553 873.33 259.899 870.786Q256.245 868.243 252.642 865.626Q249.04 863.01 245.491 860.322Q241.941 857.635 238.446 854.876Q234.951 852.118 231.512 849.291Q228.073 846.463 224.691 843.567Q221.309 840.671 217.986 837.708Q214.663 834.746 211.4 831.717Q208.136 828.688 204.934 825.595Q201.732 822.501 198.593 819.344Q195.453 816.188 192.377 812.969Q189.301 809.75 186.291 806.47Q183.28 803.19 180.335 799.85Q177.391 796.511 174.514 793.113Q171.636 789.715 168.828 786.261Q166.019 782.806 163.28 779.296Q160.541 775.786 157.873 772.222Q155.205 768.658 152.608 765.041Q150.012 761.424 147.488 757.756Q144.965 754.088 142.515 750.37Q140.066 746.652 137.691 742.886Q135.316 739.12 133.017 735.307Q130.718 731.495 128.496 727.637Q126.274 723.779 124.129 719.877C114.539 702.596 105.507 684.226 98.5569 665.706C67.8078 583.763 61.4813 485.09 89.495 401.491C93.2241 390.363 98.2639 379.462 103.138 368.784C113.523 346.034 126.276 324.286 138.838 302.688L168.713 250.944Q176.069 238.322 183.148 225.543C186.766 219.106 190.43 212.044 194.978 206.218C196.113 204.765 197.364 204.163 199.062 203.529Z"/>
	<path fill="white" d="M141.871 723.961L881.319 723.881C858.23 765.516 820.16 807.542 783.662 837.941C761.326 855.75 737.911 872.209 712.712 885.723Q708.122 888.194 703.474 890.551Q698.825 892.908 694.12 895.151Q689.415 897.393 684.656 899.52Q679.897 901.646 675.087 903.655Q670.278 905.664 665.42 907.554Q660.563 909.444 655.661 911.215Q650.758 912.985 645.814 914.635Q640.869 916.284 635.886 917.812Q630.903 919.34 625.883 920.745Q620.864 922.15 615.812 923.431Q610.759 924.712 605.677 925.869Q600.595 927.026 595.486 928.058Q590.377 929.09 585.244 929.996Q580.111 930.902 574.957 931.682Q569.804 932.462 564.632 933.115Q559.461 933.768 554.276 934.294Q549.09 934.82 543.893 935.219Q538.696 935.617 533.491 935.888Q528.285 936.159 523.075 936.302Q517.865 936.445 512.653 936.46Q507.44 936.475 502.229 936.362Q497.018 936.25 491.812 936.009Q486.605 935.768 481.406 935.4Q476.206 935.031 471.018 934.535Q465.829 934.039 460.654 933.416Q455.479 932.793 450.321 932.043Q445.163 931.293 440.025 930.417Q434.887 929.541 429.772 928.538Q424.657 927.536 419.568 926.409Q414.479 925.281 409.42 924.029Q404.36 922.777 399.333 921.402Q394.305 920.026 389.313 918.527Q385.253 917.323 381.218 916.038Q377.183 914.753 373.174 913.389Q369.165 912.024 365.184 910.58Q361.203 909.136 357.252 907.614Q353.3 906.091 349.38 904.491Q345.459 902.89 341.571 901.212Q337.683 899.534 333.829 897.78Q329.975 896.025 326.156 894.194Q322.338 892.363 318.557 890.457Q314.775 888.55 311.032 886.569Q307.29 884.588 303.587 882.534Q299.884 880.479 296.223 878.351Q292.561 876.223 288.943 874.023Q285.325 871.823 281.751 869.551Q278.177 867.28 274.648 864.938Q271.12 862.596 267.639 860.185Q264.158 857.773 260.725 855.293Q257.293 852.813 253.91 850.266Q250.528 847.718 247.196 845.104Q243.865 842.49 240.586 839.81Q237.307 837.13 234.081 834.386Q230.856 831.642 227.686 828.834Q224.516 826.026 221.402 823.156Q218.289 820.286 215.232 817.355Q212.176 814.424 209.179 811.432Q206.181 808.441 203.244 805.391Q200.306 802.341 197.43 799.233Q194.553 796.125 191.739 792.961Q188.925 789.797 186.174 786.577Q183.423 783.357 180.736 780.084Q178.05 776.811 175.429 773.484Q172.808 770.158 170.253 766.781C159.815 752.901 150.101 739.315 141.871 723.961Z"/>
	<path d="M359.398 279.229C375.021 278.964 390.696 279.235 406.324 279.256C416.118 279.269 435.29 278.104 443.793 280.399C450.172 282.121 456.355 286.65 459.474 292.537C461.522 296.402 462.262 300.949 460.834 305.155Q460.629 305.774 460.361 306.369Q460.093 306.964 459.765 307.528Q459.436 308.091 459.051 308.618Q458.665 309.144 458.227 309.627Q457.789 310.11 457.302 310.545Q456.816 310.98 456.287 311.362Q455.758 311.744 455.192 312.068Q454.627 312.393 454.03 312.657C447.909 315.429 441.828 312.639 436.033 310.474C422.468 316.986 417.953 327.116 401.907 330.101C406.403 344.379 412.294 358.336 417.154 372.528C461.847 373.248 506.67 372.661 551.373 372.576C584.492 372.513 617.682 373.216 650.784 372.259C647.573 364.753 630.248 319.6 631.094 315.099C631.558 312.634 634.05 311.012 635.933 309.67C639.862 309.094 643.875 308.893 647.826 308.414C646.496 306.619 645.057 304.699 643.055 303.614C632.832 298.074 608.271 305.65 599.241 300.567C597.036 299.325 594.782 297.246 594.145 294.707C593.709 292.97 594.142 291.207 595.043 289.693C596.771 286.787 599.89 285.057 603.132 284.4C607.37 283.542 637.017 284.093 641.5 284.904Q643.086 285.189 644.635 285.631Q646.184 286.073 647.681 286.668Q649.178 287.263 650.608 288.005Q652.038 288.747 653.386 289.629C660.37 294.263 667.622 303.631 669.087 312.009C669.477 314.238 669.194 316.647 667.764 318.47C664.342 322.837 657.106 322.675 652.042 323.18C657.387 336.75 661.868 350.681 667.065 364.321C673.96 382.415 681.573 400.386 687.907 418.674C692.617 432.27 696.458 446.252 700.873 459.96Q705.457 459.04 710.096 458.454Q714.735 457.868 719.405 457.62Q724.074 457.371 728.749 457.462Q733.424 457.553 738.08 457.982C773.544 461.001 804.749 476.664 827.618 504.014C848.05 528.448 857.05 561.586 854.163 593.082C850.899 628.686 833.498 659.123 806.137 681.7C780.835 702.578 745.592 712.394 713.056 709.112Q711.532 708.948 710.013 708.747Q708.494 708.546 706.979 708.308Q705.465 708.071 703.957 707.797Q702.449 707.523 700.949 707.213Q699.448 706.903 697.955 706.557Q696.462 706.211 694.977 705.829Q693.493 705.447 692.019 705.029Q690.544 704.612 689.08 704.159Q687.616 703.706 686.163 703.218Q684.71 702.73 683.269 702.207Q681.829 701.684 680.401 701.127Q678.973 700.569 677.56 699.978Q676.146 699.386 674.747 698.761Q673.347 698.135 671.964 697.476Q670.58 696.817 669.213 696.125Q667.845 695.433 666.495 694.709Q665.144 693.984 663.812 693.227Q662.479 692.47 661.165 691.681Q659.851 690.892 658.557 690.071Q657.262 689.251 655.988 688.4Q654.713 687.549 653.46 686.667Q652.206 685.785 650.974 684.874Q649.742 683.962 648.532 683.021Q647.323 682.08 646.136 681.11Q644.949 680.141 643.786 679.142Q642.623 678.144 641.484 677.119Q640.346 676.093 639.232 675.04Q638.119 673.987 637.031 672.907Q635.943 671.828 634.881 670.723Q633.819 669.617 632.784 668.487Q631.75 667.356 630.742 666.201Q629.735 665.046 628.756 663.867C607.068 637.291 597.54 603.977 601.027 569.946Q601.178 568.43 601.366 566.919Q601.555 565.408 601.779 563.901Q602.004 562.395 602.266 560.894Q602.528 559.394 602.826 557.9Q603.124 556.406 603.459 554.921Q603.793 553.435 604.164 551.957Q604.535 550.48 604.941 549.012Q605.348 547.544 605.79 546.087Q606.233 544.629 606.711 543.183Q607.188 541.737 607.701 540.303Q608.214 538.869 608.762 537.447Q609.31 536.026 609.892 534.619Q610.474 533.211 611.09 531.819Q611.707 530.426 612.357 529.048Q613.007 527.671 613.691 526.31Q614.375 524.949 615.091 523.605Q615.808 522.261 616.557 520.935Q617.306 519.609 618.088 518.301Q618.869 516.994 619.682 515.706Q620.495 514.418 621.339 513.15Q622.183 511.882 623.058 510.635Q623.933 509.389 624.838 508.164Q625.743 506.938 626.678 505.736Q627.612 504.533 628.576 503.354Q629.54 502.174 630.532 501.019Q631.524 499.863 632.544 498.732Q633.564 497.601 634.612 496.495Q635.659 495.389 636.733 494.309Q637.807 493.23 638.907 492.176Q640.008 491.123 641.133 490.096Q642.258 489.07 643.409 488.072Q644.559 487.073 645.733 486.103C655.561 477.139 671.102 468.963 683.61 464.942C680.953 456.318 677.968 447.781 675.199 439.191C673.167 432.883 671.462 426.475 669.078 420.286C656.051 433.678 644.188 448.082 631.489 461.764C614.67 479.885 597.16 497.273 580.162 515.211C570.8 525.091 561.325 534.728 551.709 544.362C544.069 552.017 536.686 559.592 528.282 566.418C529.411 569.948 530.509 573.476 531.298 577.101C534.247 590.646 532.544 603.908 524.902 615.61C517.182 627.432 507.025 632.788 493.536 635.648L493.512 645.489C498.344 645.49 510.604 644.309 514.164 646.408C515.777 647.359 516.968 648.92 517.356 650.764C517.767 652.716 517.275 654.676 516.064 656.25C514.649 658.09 512.895 658.718 510.653 658.995C505.882 659.584 500.798 658.929 495.984 658.962C486.637 659.025 476.203 660.153 466.967 659.038C464.974 658.797 462.836 658.162 461.304 656.806Q461.08 656.611 460.879 656.394Q460.678 656.176 460.501 655.938Q460.325 655.7 460.175 655.444Q460.026 655.188 459.905 654.917Q459.784 654.647 459.693 654.365Q459.602 654.082 459.543 653.792Q459.483 653.502 459.455 653.206Q459.428 652.911 459.432 652.615C459.449 650.573 460.201 648.449 461.747 647.093C465.691 643.633 477.67 645.281 482.867 645.384C482.666 642.411 482.695 639.392 482.638 636.411C475.725 635.274 469.089 633.771 463.014 630.125C450.845 622.821 444.045 610.066 440.76 596.684L416.744 596.612C414.364 608.941 411.907 621.19 407.049 632.833C393.301 665.785 368.297 688.857 335.635 702.198C307.568 713.662 268.822 712.875 240.913 700.903C209.764 687.542 183.339 663.363 170.789 631.364C158.31 599.545 158.368 564.518 172.255 533.168Q172.894 531.707 173.569 530.263Q174.244 528.819 174.955 527.392Q175.666 525.965 176.413 524.556Q177.16 523.148 177.942 521.759Q178.725 520.369 179.541 519Q180.358 517.631 181.209 516.283Q182.06 514.935 182.945 513.608Q183.829 512.282 184.747 510.978Q185.665 509.675 186.615 508.394Q187.565 507.114 188.547 505.858Q189.529 504.602 190.542 503.371Q191.556 502.141 192.6 500.936Q193.644 499.731 194.718 498.552Q195.791 497.374 196.895 496.223Q197.998 495.072 199.13 493.949Q200.262 492.827 201.421 491.733Q202.581 490.639 203.768 489.574Q204.955 488.51 206.168 487.475Q207.381 486.441 208.62 485.437Q209.859 484.434 211.123 483.462Q212.386 482.49 213.674 481.55Q214.962 480.61 216.273 479.703Q217.584 478.796 218.917 477.921Q220.25 477.047 221.605 476.207Q222.96 475.367 224.336 474.561Q225.712 473.755 227.107 472.984Q228.503 472.213 229.917 471.478Q231.331 470.742 232.764 470.042Q234.196 469.342 235.646 468.679Q237.096 468.015 238.561 467.388Q240.027 466.761 241.508 466.171Q242.99 465.581 244.485 465.029C279.13 451.876 314.102 455.176 347.394 470.297C360.133 447.344 373.961 424.845 387.295 402.224C391.584 394.949 396.3 387.865 400.307 380.439C395.703 363.801 389.745 346.467 382.714 330.699C370.114 330.593 349.345 333.703 339.396 325.175C334.996 321.404 332.734 316.236 332.4 310.503C331.918 302.228 334.588 293.073 340.322 286.961C345.642 281.293 351.93 279.598 359.398 279.229Z"/>
	<path fill="white" d="M725.977 576.07C727.41 576.147 729.216 576.316 730.528 576.923C732.158 577.676 733.563 579.416 734.153 581.087C734.824 582.986 734.618 585.008 733.627 586.755C732.246 589.186 730.525 589.833 727.926 590.54C726.317 590.552 724.68 590.476 723.213 589.732Q722.893 589.566 722.593 589.368Q722.292 589.17 722.014 588.942Q721.736 588.714 721.483 588.458Q721.23 588.202 721.005 587.921Q720.78 587.64 720.586 587.337Q720.392 587.034 720.23 586.713Q720.068 586.391 719.941 586.055Q719.813 585.718 719.722 585.37C719.221 583.498 719.549 581.529 720.558 579.884C721.886 577.721 723.583 576.722 725.977 576.07Z"/>
	<path fill="white" d="M286.017 570.007L286.886 570.091C288.245 572.008 279.007 582.75 279.102 588.461Q279.105 588.828 279.145 589.193Q279.185 589.559 279.261 589.918Q279.338 590.277 279.451 590.627Q279.564 590.976 279.712 591.312Q279.86 591.649 280.041 591.968Q280.223 592.288 280.436 592.587Q280.649 592.886 280.891 593.163Q281.133 593.439 281.402 593.689C286.479 598.469 297.326 597.072 303.806 596.985C303.779 597.025 303.752 597.064 303.726 597.103C301.576 600.38 299.523 601.833 296.116 603.573C291.209 605.084 285.913 605.011 281.225 602.805C276.821 600.733 273.304 597.065 271.717 592.433Q271.443 591.658 271.251 590.859Q271.059 590.06 270.95 589.245Q270.841 588.43 270.817 587.609Q270.792 586.787 270.853 585.967Q270.913 585.148 271.057 584.338Q271.202 583.529 271.429 582.739Q271.656 581.949 271.964 581.187Q272.271 580.425 272.655 579.698C275.538 574.182 280.305 571.706 286.017 570.007Z"/>
	<path fill="white" d="M483.754 560.145Q484.749 560.064 485.748 560.05Q486.746 560.037 487.743 560.091Q488.741 560.145 489.732 560.266Q490.723 560.388 491.704 560.576Q492.684 560.764 493.65 561.018Q494.616 561.273 495.562 561.592Q496.508 561.911 497.431 562.293Q498.353 562.675 499.248 563.119Q499.887 563.442 500.508 563.796Q501.13 564.151 501.732 564.537Q502.335 564.923 502.917 565.339Q503.499 565.755 504.059 566.2Q504.619 566.646 505.156 567.119Q505.692 567.592 506.204 568.092Q506.716 568.592 507.202 569.118Q507.688 569.643 508.146 570.193Q508.604 570.742 509.034 571.314Q509.464 571.887 509.864 572.48Q510.263 573.073 510.633 573.686Q511.002 574.299 511.339 574.93Q511.677 575.561 511.982 576.208Q512.287 576.856 512.558 577.518Q512.83 578.18 513.067 578.855Q513.304 579.53 513.507 580.216C515.748 587.563 515.169 595.935 511.425 602.686C507.507 609.751 501.669 613.865 494.047 616.172L493.981 605.565C495.306 604.493 496.643 603.436 497.929 602.317C501.746 598.998 504.444 594.092 504.686 588.995Q504.706 588.559 504.704 588.122Q504.701 587.685 504.676 587.25Q504.651 586.814 504.604 586.38Q504.557 585.945 504.487 585.514Q504.418 585.083 504.326 584.656Q504.234 584.229 504.121 583.808Q504.007 583.386 503.872 582.971Q503.737 582.556 503.581 582.148Q503.425 581.74 503.248 581.341Q503.071 580.942 502.873 580.552Q502.676 580.163 502.459 579.784Q502.242 579.405 502.005 579.038Q501.769 578.671 501.514 578.316Q501.259 577.962 500.986 577.621Q500.713 577.28 500.423 576.953Q500.133 576.627 499.827 576.316C495.759 572.158 490.685 570.488 485.024 570.305C483.215 570.517 481.549 570.884 479.845 571.544C475.337 573.291 471.893 576.681 470.109 581.178Q469.767 582.033 469.511 582.917Q469.255 583.801 469.087 584.706Q468.919 585.611 468.842 586.528Q468.764 587.445 468.777 588.366Q468.79 589.286 468.894 590.201Q468.998 591.116 469.191 592.016Q469.385 592.915 469.666 593.792Q469.948 594.668 470.314 595.513C472.775 601.153 477.227 604.226 482.793 606.321L483.039 617.492C478.535 616.404 474.325 615.191 470.429 612.577Q469.85 612.185 469.292 611.764Q468.733 611.344 468.197 610.896Q467.66 610.448 467.146 609.974Q466.632 609.5 466.143 609.001Q465.653 608.502 465.189 607.979Q464.725 607.457 464.287 606.911Q463.85 606.366 463.44 605.8Q463.031 605.233 462.65 604.647Q462.269 604.061 461.917 603.457Q461.566 602.852 461.246 602.231Q460.925 601.61 460.636 600.973Q460.346 600.337 460.089 599.687Q459.832 599.037 459.607 598.375Q459.383 597.713 459.192 597.041Q459 596.368 458.843 595.687Q458.685 595.006 458.562 594.318C457.162 586.572 459.158 577.833 463.763 571.448C468.635 564.693 475.768 561.415 483.754 560.145Z"/>
	<path fill="white" d="M359.738 293.218C377.866 293.748 396.132 293.375 414.273 293.387C422.01 293.391 430.198 292.877 437.887 293.626C440.11 293.843 443.242 294.174 445.034 295.614C446.131 296.496 447.818 298.257 447.903 299.707C446.985 299.875 440.566 296.495 438.43 296.194C432.595 295.373 428.184 298.29 423.803 301.679C417.763 306.509 411.744 311.334 405.176 315.439C394.73 316.027 384.153 315.563 373.688 315.611C367.138 315.641 360.287 316.28 353.765 315.767C352.15 315.639 350.099 315.47 348.779 314.409C347.252 313.181 346.644 311.352 346.466 309.461C346.079 305.336 347.446 300.204 350.162 297.027C352.738 294.013 355.988 293.473 359.738 293.218Z"/>
	<path fill="white" d="M352.327 497.183C355.548 498.728 358.916 502.017 361.566 504.385Q362.536 505.255 363.485 506.148Q364.434 507.042 365.36 507.958Q366.287 508.875 367.191 509.814Q368.095 510.753 368.975 511.714Q369.855 512.674 370.712 513.657Q371.569 514.639 372.401 515.642Q373.233 516.645 374.041 517.668Q374.848 518.691 375.63 519.733Q376.412 520.776 377.168 521.837Q377.925 522.899 378.655 523.978Q379.385 525.058 380.088 526.155Q380.791 527.252 381.467 528.366Q382.143 529.481 382.792 530.611Q383.44 531.741 384.061 532.887Q384.682 534.033 385.274 535.194Q385.866 536.355 386.43 537.53Q386.994 538.705 387.528 539.894Q388.063 541.082 388.568 542.284Q389.074 543.485 389.549 544.698Q390.025 545.911 390.471 547.136Q390.917 548.361 391.332 549.596Q391.748 550.831 392.133 552.076Q392.518 553.321 392.873 554.575Q393.227 555.829 393.551 557.092Q393.874 558.354 394.167 559.624Q394.46 560.894 394.721 562.171Q394.982 563.448 395.212 564.731Q395.442 566.014 395.64 567.302Q395.839 568.59 396.005 569.882Q396.172 571.175 396.307 572.471Q396.442 573.767 396.545 575.066Q396.648 576.366 396.719 577.667C382.45 578.088 368.038 577.697 353.75 577.818C339.816 577.998 325.842 577.61 311.907 577.427C310.721 575.575 309.66 573.624 308.553 571.722C321.777 546.265 337.048 521.459 352.327 497.183Z"/>
	<path fill="white" d="M408.592 402.793C411.04 405.352 456.372 537.708 460.158 550.682C450.681 558.904 445.457 566.416 442.157 578.55C435.928 578.645 423.106 579.605 417.825 578.278L417.371 577.385C410.945 534.444 397.717 507.586 364.026 479.89C369.445 468.449 377 457.337 383.397 446.356C391.811 431.913 399.727 416.933 408.592 402.793Z"/>
	<path fill="white" d="M552.783 390.244Q604.768 390.102 656.751 390.485C658.501 393.852 659.995 397.319 661.507 400.797C654.573 406.282 649.036 413.626 643.355 420.353C637.272 427.556 631.168 434.636 624.714 441.513Q575.788 494.289 524.588 544.862C521.618 547.698 518.604 550.374 515.295 552.808L514.321 552.07C501.931 542.738 491.545 541.296 476.375 543.454C471.144 526.807 464.813 510.575 459.028 494.123L435.775 426.506C431.665 414.577 426.802 402.618 423.299 390.514C438.094 389.924 453.045 390.374 467.853 390.407Q510.319 390.576 552.783 390.244Z"/>
	<path d="M556.845 471.882Q561.908 477.751 567.11 483.497C561.648 490.115 554.877 496.393 548.571 502.217C544.56 499.385 541.142 495.337 537.7 491.844C543.725 484.927 550.492 478.514 556.845 471.882Z"/>
	<path d="M590.05 439.867C593.852 441.985 597.614 447.127 600.517 450.465C596.127 455.433 583.649 468.995 578.658 472.337C574.427 470.092 571.043 465.971 567.727 462.565C574.393 454.527 582.808 447.442 590.05 439.867Z"/>
	<path d="M527.399 501.831C531.126 504.344 534.76 509.592 537.806 512.991Q527.242 523.886 516.32 534.422C516.107 534.466 515.898 534.533 515.683 534.552C513.507 534.748 510.715 532.633 509.262 531.18C507.782 529.699 506.184 527.214 506.383 525.017C506.775 520.705 523.603 505.632 527.399 501.831Z"/>
	<path fill="white" d="M284.584 477.21Q286.216 477.116 287.851 477.075Q289.485 477.035 291.12 477.05Q292.755 477.064 294.389 477.133Q296.023 477.202 297.653 477.325Q299.283 477.449 300.909 477.626Q302.534 477.804 304.152 478.035Q305.771 478.267 307.381 478.552Q308.991 478.838 310.59 479.177Q312.19 479.516 313.777 479.907Q315.365 480.299 316.938 480.744Q318.511 481.189 320.069 481.686Q321.627 482.182 323.167 482.731Q324.707 483.279 326.229 483.879Q327.75 484.478 329.25 485.128Q330.751 485.778 332.228 486.477Q333.706 487.177 335.16 487.925C321.882 513.037 305.316 536.42 291.86 561.501C288.783 561.414 285.752 561.294 282.715 561.908C275.875 563.293 270.202 567.159 266.401 573.023Q266.054 573.558 265.734 574.109Q265.414 574.661 265.122 575.227Q264.83 575.794 264.566 576.375Q264.303 576.955 264.069 577.548Q263.835 578.141 263.631 578.745Q263.427 579.349 263.253 579.963Q263.079 580.576 262.936 581.197Q262.794 581.819 262.682 582.446Q262.57 583.074 262.49 583.706Q262.41 584.339 262.361 584.974Q262.313 585.61 262.296 586.248Q262.28 586.885 262.295 587.522Q262.31 588.16 262.357 588.795Q262.404 589.431 262.483 590.064Q262.561 590.696 262.671 591.324Q262.782 591.952 262.923 592.574C264.577 599.657 269.529 606.283 275.804 609.985C282.24 613.782 290.044 614.467 297.182 612.463C305.925 610.008 309.986 604.132 314.165 596.643L396.756 596.556C392.179 624.625 379.839 647.234 358.288 665.922C341.542 680.027 319.409 688.508 297.64 690.148C269.278 692.286 238.537 682.269 217.117 663.591Q216.154 662.739 215.213 661.864Q214.271 660.988 213.351 660.091Q212.431 659.193 211.532 658.273Q210.634 657.354 209.758 656.412Q208.882 655.471 208.03 654.509Q207.177 653.547 206.348 652.565Q205.518 651.583 204.713 650.581Q203.908 649.579 203.127 648.557Q202.346 647.536 201.59 646.496Q200.834 645.456 200.103 644.399Q199.372 643.341 198.668 642.266Q197.963 641.191 197.284 640.099Q196.605 639.007 195.953 637.899Q195.301 636.791 194.676 635.668Q194.051 634.545 193.453 633.406Q192.855 632.268 192.285 631.116Q191.715 629.964 191.173 628.798Q190.631 627.633 190.117 626.454Q189.603 625.276 189.118 624.085Q188.633 622.895 188.176 621.693Q187.72 620.491 187.293 619.278Q186.866 618.066 186.468 616.843Q186.07 615.621 185.702 614.389Q185.334 613.157 184.996 611.917Q184.658 610.677 184.35 609.428Q184.042 608.18 183.764 606.925Q183.486 605.67 183.238 604.408Q182.991 603.147 182.774 601.88Q182.557 600.613 182.371 599.341Q182.185 598.069 182.029 596.792Q181.874 595.516 181.749 594.237Q181.625 592.957 181.531 591.675C179.637 562.21 188.734 535.531 208.19 513.458C227.765 491.249 255.278 479.14 284.584 477.21Z"/>
	<path fill="white" d="M720.967 477.218C732.313 476.662 743.299 477.902 754.341 480.537C781.964 487.129 805.001 504.504 819.784 528.724C834.057 552.106 837.824 582.05 831.314 608.507Q831.001 609.772 830.657 611.03Q830.312 612.287 829.937 613.535Q829.561 614.783 829.155 616.022Q828.749 617.26 828.312 618.489Q827.875 619.717 827.407 620.933Q826.94 622.15 826.443 623.355Q825.945 624.56 825.418 625.752Q824.891 626.944 824.334 628.123Q823.777 629.302 823.192 630.466Q822.606 631.631 821.991 632.78Q821.377 633.93 820.734 635.064Q820.091 636.198 819.42 637.316Q818.75 638.433 818.051 639.534Q817.353 640.635 816.627 641.717Q815.902 642.8 815.15 643.865Q814.398 644.93 813.619 645.975Q812.841 647.021 812.037 648.047Q811.233 649.073 810.403 650.078Q809.574 651.084 808.72 652.069Q807.866 653.054 806.988 654.017Q806.109 654.98 805.208 655.921Q804.306 656.862 803.381 657.781Q802.456 658.699 801.508 659.594Q800.561 660.49 799.591 661.361Q798.622 662.232 797.631 663.079Q796.64 663.926 795.629 664.749Q794.617 665.571 793.585 666.368Q792.554 667.164 791.503 667.935Q790.452 668.706 789.382 669.451Q788.312 670.195 787.224 670.913Q786.136 671.631 785.03 672.322Q783.924 673.012 782.802 673.675C757.842 688.58 728.261 694.053 699.906 686.778C669.606 679.005 648.304 660.978 632.543 634.355Q630.14 630.114 628.151 625.665Q626.162 621.215 624.604 616.597C615.9 590.573 618.184 559.256 630.605 534.767C642.403 511.507 665.197 491.499 690.028 483.382C691.644 491.031 694.443 498.511 696.795 505.968Q703.455 526.815 709.615 547.814C711.768 555.092 714.304 562.455 715.806 569.897C712.846 573.701 710.693 577.897 710.507 582.81C710.342 587.158 711.813 591.28 714.82 594.447Q715.126 594.767 715.448 595.07Q715.771 595.374 716.108 595.661Q716.445 595.948 716.796 596.217Q717.147 596.486 717.512 596.738Q717.877 596.989 718.253 597.221Q718.63 597.454 719.018 597.667Q719.407 597.879 719.805 598.072Q720.204 598.265 720.611 598.438Q721.019 598.61 721.435 598.762Q721.851 598.913 722.274 599.043Q722.697 599.173 723.127 599.282Q723.556 599.391 723.99 599.477Q724.424 599.564 724.862 599.628Q725.3 599.692 725.741 599.735Q726.182 599.777 726.624 599.796Q727.066 599.816 727.509 599.813C731.852 599.774 736.026 598.08 738.99 594.872C742.057 591.554 743.863 586.463 743.493 581.95C742.998 575.909 739.111 572.084 734.807 568.345C727.049 538.056 715.904 508.611 707.863 478.352C712.214 477.726 716.584 477.489 720.967 477.218Z"/>
</svg>
